<svg width="58" height="58" viewBox="0 0 58 58" fill="none" xmlns="http://www.w3.org/2000/svg">
<circle opacity="0.2" cx="29" cy="29" r="26.5" stroke="#E31E46" stroke-width="5"/>
<rect x="4.5" y="4.5" width="49" height="49" rx="24.5" stroke="#E31E46"/>
<path d="M29 30.9987C28.2636 30.9987 27.6667 30.4017 27.6667 29.6654L27.6667 19.6654C27.6667 18.929 28.2636 18.332 29 18.332C29.7364 18.332 30.3333 18.929 30.3333 19.6654L30.3333 29.6654C30.3333 30.4017 29.7364 30.9987 29 30.9987Z" fill="#E31E46"/>
<path d="M29 34.332C27.8954 34.332 27 35.2275 27 36.332C27 37.4366 27.8954 38.332 29 38.332C30.1046 38.332 31 37.4366 31 36.332C31 35.2275 30.1046 34.332 29 34.332Z" fill="#E31E46"/>
</svg>
