<svg width="40" height="40" viewBox="0 0 40 40" fill="none" xmlns="http://www.w3.org/2000/svg">
<path d="M4.99967 10.8327C4.99967 9.45197 6.11896 8.33268 7.49967 8.33268H25.5104C26.2097 8.33268 26.877 8.62558 27.3504 9.14028L32.6731 14.9273C33.0975 15.3887 33.333 15.9928 33.333 16.6197V18.3327C33.333 18.7929 33.7061 19.166 34.1663 19.166C34.6266 19.166 34.9997 18.7929 34.9997 18.3327V16.6197C34.9997 15.5748 34.6071 14.5681 33.8998 13.799L28.5771 8.01201C27.7881 7.15418 26.6759 6.66602 25.5104 6.66602H7.49967C5.19849 6.66602 3.33301 8.5315 3.33301 10.8327V24.166C3.33301 26.4672 5.19849 28.3327 7.49967 28.3327H17.4997C17.9599 28.3327 18.333 27.9596 18.333 27.4993C18.333 27.0391 17.9599 26.666 17.4997 26.666H7.49967C6.11896 26.666 4.99967 25.5467 4.99967 24.166V10.8327Z" fill="#222E37"/>
<path d="M8.33301 21.666C7.87277 21.666 7.49967 22.0391 7.49967 22.4993C7.49967 22.9596 7.87277 23.3327 8.33301 23.3327H18.333C18.7932 23.3327 19.1663 22.9596 19.1663 22.4993C19.1663 22.0391 18.7932 21.666 18.333 21.666H8.33301Z" fill="#222E37"/>
<path d="M8.33301 18.3327C7.87277 18.3327 7.49967 18.7058 7.49967 19.166C7.49967 19.6263 7.87277 19.9993 8.33301 19.9993H21.6663C22.1266 19.9993 22.4997 19.6263 22.4997 19.166C22.4997 18.7058 22.1266 18.3327 21.6663 18.3327H8.33301Z" fill="#222E37"/>
<path d="M13.333 13.3327C13.333 14.7134 12.2137 15.8327 10.833 15.8327C9.4523 15.8327 8.33301 14.7134 8.33301 13.3327C8.33301 11.952 9.4523 10.8327 10.833 10.8327C12.2137 10.8327 13.333 11.952 13.333 13.3327Z" fill="#222E37"/>
<path d="M28.333 22.4994C28.7932 22.4994 29.1663 22.8725 29.1663 23.3327V26.0349H31.8686C32.3288 26.0349 32.7019 26.408 32.7019 26.8682C32.7019 27.3285 32.3288 27.7016 31.8686 27.7016H29.1663V30.4038C29.1663 30.864 28.7932 31.2371 28.333 31.2371C27.8728 31.2371 27.4997 30.864 27.4997 30.4038V27.7016H24.7975C24.3373 27.7016 23.9642 27.3285 23.9642 26.8682C23.9642 26.408 24.3373 26.0349 24.7975 26.0349H27.4997V23.3327C27.4997 22.8725 27.8728 22.4994 28.333 22.4994Z" fill="#222E37"/>
<path fill-rule="evenodd" clip-rule="evenodd" d="M19.9997 26.666C19.9997 22.0636 23.7306 18.3327 28.333 18.3327C32.9354 18.3327 36.6663 22.0636 36.6663 26.666C36.6663 31.2684 32.9354 34.9993 28.333 34.9993C23.7306 34.9993 19.9997 31.2684 19.9997 26.666ZM28.333 19.9993C24.6511 19.9993 21.6663 22.9841 21.6663 26.666C21.6663 30.3479 24.6511 33.3327 28.333 33.3327C32.0149 33.3327 34.9997 30.3479 34.9997 26.666C34.9997 22.9841 32.0149 19.9993 28.333 19.9993Z" fill="#222E37"/>
</svg>
