<svg width="24" height="24" viewBox="0 0 24 24" fill="none" xmlns="http://www.w3.org/2000/svg">
<path fill-rule="evenodd" clip-rule="evenodd" d="M3 5.5C2.44772 5.5 2 5.94772 2 6.5V15.5C2 16.0523 2.44772 16.5 3 16.5H11C11.2761 16.5 11.5 16.2761 11.5 16C11.5 15.7239 11.2761 15.5 11 15.5H6C6 14.7044 5.68393 13.9413 5.12132 13.3787C4.55871 12.8161 3.79565 12.5 3 12.5V9.5C3.79565 9.5 4.55871 9.18393 5.12132 8.62132C5.68393 8.05871 6 7.29565 6 6.5H15C15 7.29565 15.3161 8.05871 15.8787 8.62132C16.4413 9.18393 17.2044 9.5 18 9.5V11C18 11.2761 18.2239 11.5 18.5 11.5C18.7761 11.5 19 11.2761 19 11V6.5C19 5.94772 18.5523 5.5 18 5.5H3ZM16.5858 7.91421C16.9609 8.28929 17.4696 8.5 18 8.5V6.5H16C16 7.03043 16.2107 7.53914 16.5858 7.91421ZM5 6.5L3 6.5V8.5C3.53043 8.5 4.03914 8.28929 4.41422 7.91421C4.78929 7.53914 5 7.03043 5 6.5ZM4.41422 14.0858C4.03914 13.7107 3.53043 13.5 3 13.5V15.5H5C5 14.9696 4.78929 14.4609 4.41422 14.0858Z" fill="black"/>
<path d="M6 10C6 9.72386 5.77614 9.5 5.5 9.5C5.22386 9.5 5 9.72386 5 10V12C5 12.2761 5.22386 12.5 5.5 12.5C5.77614 12.5 6 12.2761 6 12V10Z" fill="black"/>
<path d="M16 10C16 9.72386 15.7761 9.5 15.5 9.5C15.2239 9.5 15 9.72386 15 10V11C15 11.2761 15.2239 11.5 15.5 11.5C15.7761 11.5 16 11.2761 16 11V10Z" fill="black"/>
<path fill-rule="evenodd" clip-rule="evenodd" d="M8 11C8 9.61929 9.11929 8.5 10.5 8.5C11.8807 8.5 13 9.61929 13 11C13 12.3807 11.8807 13.5 10.5 13.5C9.11929 13.5 8 12.3807 8 11ZM10.5 9.5C9.67157 9.5 9 10.1716 9 11C9 11.8284 9.67157 12.5 10.5 12.5C11.3284 12.5 12 11.8284 12 11C12 10.1716 11.3284 9.5 10.5 9.5Z" fill="black"/>
<path d="M17 15C17.2761 15 17.5 15.2239 17.5 15.5V17C17.5 17.2761 17.2761 17.5 17 17.5C16.7239 17.5 16.5 17.2761 16.5 17V15.5C16.5 15.2239 16.7239 15 17 15Z" fill="black"/>
<path d="M17 19C17.2761 19 17.5 18.7761 17.5 18.5C17.5 18.2239 17.2761 18 17 18C16.7239 18 16.5 18.2239 16.5 18.5C16.5 18.7761 16.7239 19 17 19Z" fill="black"/>
<path fill-rule="evenodd" clip-rule="evenodd" d="M17 12C14.2386 12 12 14.2386 12 17C12 19.7614 14.2386 22 17 22C19.7614 22 22 19.7614 22 17C22 14.2386 19.7614 12 17 12ZM13 17C13 14.7909 14.7909 13 17 13C19.2091 13 21 14.7909 21 17C21 19.2091 19.2091 21 17 21C14.7909 21 13 19.2091 13 17Z" fill="black"/>
</svg>
