<svg width="40" height="40" viewBox="0 0 40 40" fill="none" xmlns="http://www.w3.org/2000/svg">
<path fill-rule="evenodd" clip-rule="evenodd" d="M23.8647 18.7664C25.5606 17.5578 26.6666 15.5749 26.6666 13.3337C26.6666 9.65176 23.6818 6.66699 19.9999 6.66699C16.318 6.66699 13.3333 9.65176 13.3333 13.3337C13.3333 15.5749 14.4392 17.5578 16.1351 18.7664C14.4018 19.2717 12.8059 20.207 11.5063 21.5067C9.47462 23.5383 8.33325 26.2938 8.33325 29.167V29.667C8.33325 30.6395 8.71956 31.5721 9.40719 32.2597C10.0948 32.9473 11.0275 33.3337 11.9999 33.3337H27.9999C28.9724 33.3337 29.905 32.9473 30.5926 32.2597C31.2803 31.5721 31.6666 30.6395 31.6666 29.667V29.167C31.6666 26.2938 30.5252 23.5383 28.4936 21.5067C27.1939 20.207 25.5981 19.2717 23.8647 18.7664ZM14.9999 13.3337C14.9999 10.5722 17.2385 8.33366 19.9999 8.33366C22.7613 8.33366 24.9999 10.5722 24.9999 13.3337C24.9999 16.0951 22.7613 18.3337 19.9999 18.3337C17.2385 18.3337 14.9999 16.0951 14.9999 13.3337ZM27.3151 22.6852C25.596 20.9661 23.2644 20.0003 20.8333 20.0003H19.1666C16.7354 20.0003 14.4039 20.9661 12.6848 22.6852C10.9657 24.4043 9.99992 26.7358 9.99992 29.167V29.667C9.99992 30.1974 10.2106 30.7061 10.5857 31.0812C10.9608 31.4563 11.4695 31.667 11.9999 31.667H27.9999C28.5303 31.667 29.0391 31.4563 29.4141 31.0812C29.7892 30.7061 29.9999 30.1974 29.9999 29.667V29.167C29.9999 26.7358 29.0341 24.4043 27.3151 22.6852Z" fill="#222E37"/>
</svg>
