<svg width="28" height="28" viewBox="0 0 28 28" fill="none" xmlns="http://www.w3.org/2000/svg">
<path fill-rule="evenodd" clip-rule="evenodd" d="M14.0003 5.83378C10.7786 5.83378 8.16695 8.44545 8.16695 11.6671C8.16695 14.8888 10.7786 17.5004 14.0003 17.5004C17.2219 17.5004 19.8336 14.8888 19.8336 11.6671C19.8336 8.44545 17.2219 5.83378 14.0003 5.83378ZM9.33362 11.6671C9.33362 9.08979 11.423 7.00045 14.0003 7.00045C16.5776 7.00045 18.667 9.08979 18.667 11.6671C18.667 14.2444 16.5776 16.3338 14.0003 16.3338C11.423 16.3338 9.33362 14.2444 9.33362 11.6671Z" fill="#222E37"/>
<path fill-rule="evenodd" clip-rule="evenodd" d="M14.0003 2.30957C12.7841 2.30957 11.5813 2.5631 10.4685 3.05398C9.35764 3.54406 8.36091 4.25998 7.54175 5.15617L7.324 5.38535L7.32057 5.38901C5.60568 7.22549 4.65186 9.64447 4.65186 12.1571C4.65186 14.6698 5.60567 17.0888 7.32056 18.9253L13.5024 25.4577L13.5103 25.4654C13.6411 25.5936 13.817 25.6655 14.0003 25.6655C14.1835 25.6655 14.3594 25.5936 14.4903 25.4654L14.4981 25.4577L20.6773 18.9281L20.6799 18.9253C22.3948 17.0888 23.3487 14.6698 23.3487 12.1571C23.3487 9.64447 22.3949 7.22547 20.68 5.389L20.4588 5.15617C19.6396 4.25998 18.6429 3.54406 17.532 3.05398C16.4193 2.5631 15.2164 2.30957 14.0003 2.30957ZM10.9394 4.12139C11.9038 3.69596 12.9462 3.47624 14.0003 3.47624C15.0543 3.47624 16.0967 3.69596 17.0611 4.12139C18.0254 4.54682 18.8904 5.16868 19.601 5.94715L19.8289 6.18704C21.341 7.80724 22.182 9.94089 22.182 12.1571C22.182 14.3736 21.3408 16.5075 19.8284 18.1277L19.8272 18.129L14.0003 24.2864L8.17327 18.129L8.17204 18.1277C6.65967 16.5074 5.81852 14.3736 5.81852 12.1571C5.81852 9.94091 6.6595 7.80727 8.17158 6.18708L8.39159 5.95566L8.39943 5.94707C9.11002 5.1686 9.97509 4.54682 10.9394 4.12139Z" fill="#222E37"/>
</svg>
